<svg width="100" height="101" viewBox="0 0 100 101" fill="none" xmlns="http://www.w3.org/2000/svg">
<rect y="0.5" width="100" height="100" rx="20" fill="white"/>
<path d="M30.5793 14.0325C33.9094 11.4388 38.2643 10.0059 42.5911 10.0059C45.1808 10.0059 47.2741 10.8944 48.8632 12.3074C49.2914 12.6876 49.6717 13.0999 50.0119 13.5241C50.3521 13.0999 50.7324 12.6876 51.1607 12.3074C52.7497 10.8944 54.8431 10.0059 57.4327 10.0059C61.7596 10.0059 66.1184 11.4388 69.4405 14.0325C72.0342 16.0458 74.0635 18.8276 74.8601 22.1858C76.5412 22.466 78.0341 23.3225 79.2429 24.4553C81.1642 26.2604 82.5371 28.8701 83.3976 31.5559C84.2742 34.2816 84.7105 37.3436 84.5784 40.2855C84.5103 41.7905 84.2902 43.3275 83.8699 44.7965L84.1301 44.9165C85.6111 45.613 86.8118 46.7057 87.7124 48.1587C89.4135 50.9004 90.0139 54.847 90.0139 59.8783C90.0139 65.662 87.8005 69.5886 84.9586 72.0262C83.4784 73.2957 81.7459 74.2369 79.8753 74.788C79.1966 77.9158 77.8019 80.8437 75.8007 83.3415C72.9068 86.9599 68.4079 90.0179 62.3639 90.0179C57.5208 90.0179 53.7063 87.3361 51.2567 84.7745C50.8223 84.3166 50.4083 83.8399 50.0159 83.3455C49.6221 83.8386 49.2068 84.314 48.7711 84.7705C46.3215 87.3401 42.507 90.0179 37.6639 90.0179C31.616 90.0179 27.117 86.9599 24.2272 83.3415C22.223 80.8445 20.8255 77.9166 20.1445 74.788C18.2753 74.2365 16.5442 73.2953 15.0652 72.0262C12.2234 69.5846 10.0139 65.662 10.0139 59.8783C10.0139 54.847 10.6143 50.9004 12.3114 48.1587C13.2118 46.6659 14.5549 45.4908 16.1539 44.7965C15.7427 43.3256 15.5049 41.8117 15.4454 40.2855C15.3134 37.3436 15.7496 34.2816 16.6262 31.5559C17.4868 28.8741 18.8557 26.2604 20.7809 24.4553C21.985 23.2816 23.5104 22.4918 25.1638 22.1858C25.9643 18.8236 27.9896 16.0458 30.5793 14.0325ZM34.2697 18.7676C32.0843 20.4687 30.8034 22.7341 30.8034 25.3438C30.8031 25.8192 30.6898 26.2878 30.4729 26.7108C30.2561 27.1339 29.9419 27.4994 29.5561 27.7773C29.1704 28.0552 28.7241 28.2375 28.2542 28.3092C27.7842 28.3809 27.3039 28.3399 26.8529 28.1897C26.3045 28.0056 25.7241 28.0496 24.8916 28.8341C23.963 29.7027 23.0224 31.2757 22.3419 33.3891C21.6613 35.5299 21.3579 37.7727 21.4453 40.0174C21.5454 42.2428 22.0738 44.092 22.9063 45.3408C23.044 45.5477 23.1556 45.7709 23.2385 46.0053H27.5693C30.4511 46.0047 33.2262 47.0947 35.3372 49.0564C37.4481 51.0181 38.7384 53.7061 38.9487 56.5801C40.673 57.2681 42.1045 58.534 42.9983 60.1612C43.8921 61.7883 44.1926 63.6755 43.8483 65.4997C43.5041 67.324 42.5365 68.9719 41.1112 70.1614C39.6859 71.3509 37.8915 72.008 36.0351 72.0203C34.1787 72.0326 32.3757 71.3994 30.9347 70.2289C29.4938 69.0584 28.5044 67.4235 28.136 65.604C27.7676 63.7845 28.043 61.8934 28.9151 60.2546C29.7872 58.6158 31.2018 57.331 32.9168 56.6202C32.7267 55.338 32.082 54.1669 31.1004 53.3204C30.1187 52.474 28.8655 52.0086 27.5693 52.0092H17.0625C16.4621 53.4021 16.0178 55.8076 16.0178 59.8783C16.0178 63.9649 17.5028 66.2064 18.9757 67.4712C20.5888 68.8521 22.3619 69.2123 22.8743 69.2123C23.6704 69.2123 24.434 69.5286 24.997 70.0916C25.5599 70.6546 25.8762 71.4181 25.8762 72.2143C25.8762 73.8954 26.8048 76.9494 28.9182 79.5911C30.9515 82.1407 33.8494 84.014 37.6639 84.014C40.2135 84.014 42.5591 82.581 44.4283 80.6278C45.3329 79.6751 46.0373 78.6865 46.5016 77.886C46.6773 77.5866 46.8312 77.2749 46.9619 76.9534L46.986 76.8973V39.0007H43.3996C42.703 40.7229 41.429 42.1492 39.7961 43.0351C38.1632 43.921 36.273 44.2114 34.4495 43.8566C32.6259 43.5017 30.9826 42.5236 29.801 41.09C28.6195 39.6564 27.9734 37.8565 27.9734 35.9988C27.9734 34.141 28.6195 32.3411 29.801 30.9075C30.9826 29.4739 32.6259 28.4958 34.4495 28.141C36.273 27.7861 38.1632 28.0765 39.7961 28.9624C41.429 29.8484 42.703 31.2746 43.3996 32.9968H46.986V22.8382L46.9739 22.6101C46.9055 21.3773 46.6629 20.1605 46.2535 18.9957C45.8932 18.0351 45.4249 17.2866 44.8726 16.7943C44.3803 16.354 43.6998 16.0098 42.5911 16.0098C39.5251 16.0098 36.4871 17.0424 34.2657 18.7716M53.0419 70.0209V76.8973L53.0619 76.9534C53.1419 77.1655 53.294 77.4817 53.5262 77.886C53.9865 78.6865 54.691 79.6751 55.5995 80.6278C57.4648 82.581 59.8143 84.014 62.3639 84.014C66.1744 84.014 69.0723 82.1407 71.1096 79.5911C73.219 76.9494 74.1516 73.8914 74.1516 72.2143C74.1516 71.4181 74.4679 70.6546 75.0309 70.0916C75.5938 69.5286 76.3574 69.2123 77.1536 69.2123C77.6659 69.2123 79.435 68.8521 81.0521 67.4712C82.521 66.2064 84.006 63.9649 84.006 59.8783C84.006 55.0431 83.3736 52.5535 82.6091 51.3247C82.3698 50.8998 82.0068 50.5577 81.5684 50.3441C81.1642 50.152 80.5558 50.0079 79.6152 50.0079C79.0718 50.0078 78.5387 49.8603 78.0726 49.5811C77.6065 49.3019 77.225 48.9014 76.9686 48.4224C76.7122 47.9433 76.5907 47.4037 76.6169 46.861C76.6432 46.3183 76.8162 45.7929 77.1175 45.3408C77.9501 44.092 78.4784 42.2428 78.5825 40.0174C78.6686 37.7724 78.3638 35.5296 77.6819 33.3891C77.0015 31.2757 76.0608 29.7067 75.1362 28.8341C74.2997 28.0496 73.7193 28.0056 73.175 28.1897C72.7237 28.3407 72.243 28.3823 71.7725 28.3109C71.302 28.2396 70.8551 28.0575 70.4689 27.7795C70.0826 27.5015 69.768 27.1357 69.5509 26.7122C69.3338 26.2887 69.2205 25.8197 69.2204 25.3438C69.2204 22.7341 67.9396 20.4687 65.7541 18.7676C63.5407 17.0424 60.4987 16.0058 57.4287 16.0058C56.324 16.0058 55.6476 16.354 55.1513 16.7903C54.5246 17.4048 54.0527 18.1593 53.7744 18.9917C53.3255 20.2263 53.0782 21.525 53.0419 22.8382V64.017H55.5875C57.0206 64.017 58.395 63.4477 59.4084 62.4343C60.4218 61.421 60.9911 60.0466 60.9911 58.6134V51.4288C59.2689 50.7321 57.8426 49.4582 56.9567 47.8253C56.0708 46.1924 55.7803 44.3022 56.1352 42.4786C56.4901 40.6551 57.4681 39.0117 58.9017 37.8302C60.3353 36.6487 62.1353 36.0026 63.993 36.0026C65.8508 36.0026 67.6507 36.6487 69.0843 37.8302C70.5179 39.0117 71.4959 40.6551 71.8508 42.4786C72.2057 44.3022 71.9153 46.1924 71.0293 47.8253C70.1434 49.4582 68.7171 50.7321 66.995 51.4288V58.6134C66.995 61.6389 65.7931 64.5404 63.6538 66.6797C61.5145 68.819 58.613 70.0209 55.5875 70.0209H53.0419ZM35.9748 33.9975C35.444 33.9975 34.935 34.2083 34.5597 34.5836C34.1843 34.9589 33.9735 35.468 33.9735 35.9988C33.9735 36.5295 34.1843 37.0386 34.5597 37.4139C34.935 37.7892 35.444 38.0001 35.9748 38.0001C36.5056 38.0001 37.0146 37.7892 37.3899 37.4139C37.7652 37.0386 37.9761 36.5295 37.9761 35.9988C37.9761 35.468 37.7652 34.9589 37.3899 34.5836C37.0146 34.2083 36.5056 33.9975 35.9748 33.9975ZM33.9735 64.017C33.9735 64.5477 34.1843 65.0568 34.5597 65.4321C34.935 65.8074 35.444 66.0183 35.9748 66.0183C36.5056 66.0183 37.0146 65.8074 37.3899 65.4321C37.7652 65.0568 37.9761 64.5477 37.9761 64.017C37.9761 63.4862 37.7652 62.9771 37.3899 62.6018C37.0146 62.2265 36.5056 62.0157 35.9748 62.0157C35.444 62.0157 34.935 62.2265 34.5597 62.6018C34.1843 62.9771 33.9735 63.4862 33.9735 64.017ZM61.9917 44.004C61.9917 44.5347 62.2025 45.0438 62.5779 45.4191C62.9532 45.7944 63.4622 46.0053 63.993 46.0053C64.5238 46.0053 65.0328 45.7944 65.4081 45.4191C65.7835 45.0438 65.9943 44.5347 65.9943 44.004C65.9943 43.4732 65.7835 42.9641 65.4081 42.5888C65.0328 42.2135 64.5238 42.0027 63.993 42.0027C63.4622 42.0027 62.9532 42.2135 62.5779 42.5888C62.2025 42.9641 61.9917 43.4732 61.9917 44.004Z" fill="#9266CC"/>
</svg>
