<svg width="31" height="40" viewBox="0 0 31 40" fill="none" xmlns="http://www.w3.org/2000/svg">
<path d="M11.7181 26.2312L11.701 26.1912C11.4435 26.1208 11.1882 26.0427 10.9354 25.957L10.9164 25.9494C8.28489 25.0502 6.00071 23.3503 4.38396 21.0877C2.76721 18.8251 1.89893 16.1134 1.90083 13.3326C1.89998 9.92006 3.20784 6.63715 5.55502 4.16005C7.90219 1.68294 11.1099 0.200283 14.5176 0.017453C17.9252 -0.165377 21.2732 0.965547 23.8719 3.17729C26.4707 5.38902 28.1223 8.51314 28.4866 11.9062C28.5704 12.6908 27.9229 13.3326 27.1344 13.3326C26.346 13.3326 25.7156 12.6889 25.6109 11.9081C25.3576 10.0651 24.6181 8.32282 23.4684 6.86029C22.3188 5.39777 20.8004 4.26774 19.0694 3.58636C17.3384 2.90498 15.4572 2.69683 13.6191 2.98328C11.781 3.26974 10.0523 4.04048 8.61069 5.21628C7.1691 6.39209 6.06661 7.93055 5.41651 9.67356C4.76642 11.4166 4.59217 13.3012 4.91169 15.1339C5.2312 16.9665 6.03294 18.6811 7.23452 20.1012C8.4361 21.5214 9.99417 22.596 11.7486 23.2146C12.102 22.4158 12.7193 21.7627 13.497 21.3648C14.2746 20.9669 15.1654 20.8485 16.0201 21.0292C16.8747 21.21 17.6412 21.6791 18.1911 22.3578C18.7411 23.0365 19.041 23.8837 19.0406 24.7572C19.0406 25.896 18.5417 26.9168 17.7513 27.6138C17.0567 28.2297 16.1601 28.5692 15.2318 28.5679C14.4806 28.5699 13.7458 28.3488 13.1203 27.9329C12.4948 27.5169 12.0068 26.9247 11.7181 26.2312ZM7.60838 27.6157C6.20518 26.865 4.91992 25.9122 3.79383 24.7877C2.75047 24.909 1.78804 25.4094 1.08937 26.1938C0.390699 26.9781 0.00446123 27.9918 0.00402832 29.0421V30.1429C0.00402832 31.8416 0.609634 33.4871 1.7142 34.7802C4.69652 38.2729 9.24047 39.9983 15.2318 39.9983C21.2231 39.9983 25.7689 38.2729 28.757 34.7802C29.8642 33.4866 30.4727 31.8399 30.4729 30.1372V29.0421C30.4731 28.4797 30.3626 27.9227 30.1476 27.403C29.9326 26.8832 29.6173 26.4109 29.2197 26.013C28.8222 25.6151 28.3502 25.2994 27.8306 25.084C27.3111 24.8685 26.7542 24.7574 26.1917 24.7572H21.8973C21.8973 25.7818 21.6687 26.7492 21.2555 27.6138H26.1917C26.5699 27.6148 26.9322 27.7658 27.1992 28.0335C27.4663 28.3013 27.6162 28.664 27.6162 29.0421V30.1372C27.6165 31.1588 27.2518 32.1469 26.5879 32.9234C24.194 35.7191 20.448 37.1398 15.2318 37.1398C10.0175 37.1398 6.27339 35.7191 3.88714 32.9253C3.22359 32.1493 2.8589 31.162 2.85876 30.141V29.0421C2.85876 28.6633 3.00924 28.3 3.2771 28.0322C3.54496 27.7643 3.90826 27.6138 4.28707 27.6138L7.60838 27.6157ZM7.6141 13.3326C7.61445 12.0186 7.95466 10.7271 8.60168 9.58348C9.24869 8.43987 10.1805 7.48307 11.3066 6.80602C12.4327 6.12898 13.7148 5.75473 15.0283 5.71962C16.3418 5.68452 17.642 5.98976 18.8026 6.60569C19.9633 7.22162 20.9449 8.12729 21.6521 9.2347C22.3593 10.3421 22.768 11.6136 22.8385 12.9257C22.909 14.2378 22.639 15.5457 22.0546 16.7226C21.4702 17.8994 20.5913 18.9051 19.5034 19.6419C18.306 18.6395 16.7934 18.0913 15.2318 18.0936C16.4945 18.0936 17.7055 17.592 18.5984 16.6991C19.4912 15.8063 19.9928 14.5953 19.9928 13.3326C19.9928 12.0699 19.4912 10.8589 18.5984 9.966C17.7055 9.07313 16.4945 8.57152 15.2318 8.57152C13.9691 8.57152 12.7581 9.07313 11.8652 9.966C10.9723 10.8589 10.4707 12.0699 10.4707 13.3326C10.4707 14.5953 10.9723 15.8063 11.8652 16.6991C12.7581 17.592 13.9691 18.0936 15.2318 18.0936C13.6054 18.0936 12.1162 18.6764 10.9621 19.6419C9.92919 18.9457 9.08352 18.0059 8.49965 16.9056C7.91578 15.8053 7.61166 14.5782 7.6141 13.3326Z" fill="black"/>
</svg>
