<svg width="100" height="101" viewBox="0 0 100 101" fill="none" xmlns="http://www.w3.org/2000/svg">
<rect y="0.5" width="100" height="100" rx="20" fill="white"/>
<path d="M22 41C22 41 11.714 45 10 59M78 41C78 41 88.286 45 90 59M38 41C38 41 47.6 43.334 50 55C52.4 43.334 62 41 62 41M42 71C42 71 33.6 72.5 30 83M58 71C58 71 66.4 72.5 70 83" stroke="#9266CC" stroke-width="5" stroke-linecap="round"/>
<path d="M50 75C55.5228 75 60 70.5228 60 65C60 59.4772 55.5228 55 50 55C44.4772 55 40 59.4772 40 65C40 70.5228 44.4772 75 50 75Z" stroke="#9266CC" stroke-width="5" stroke-linecap="round" stroke-linejoin="round"/>
<path d="M70 43C76.6274 43 82 37.6274 82 31C82 24.3726 76.6274 19 70 19C63.3726 19 58 24.3726 58 31C58 37.6274 63.3726 43 70 43Z" stroke="#9266CC" stroke-width="5" stroke-linecap="round" stroke-linejoin="round"/>
<path d="M30 43C36.6274 43 42 37.6274 42 31C42 24.3726 36.6274 19 30 19C23.3726 19 18 24.3726 18 31C18 37.6274 23.3726 43 30 43Z" stroke="#9266CC" stroke-width="5" stroke-linecap="round" stroke-linejoin="round"/>
</svg>
