<svg width="141" height="33" viewBox="0 0 141 33" fill="none" xmlns="http://www.w3.org/2000/svg">
<path d="M14.5 2.5L17.6432 12.1738H27.8148L19.5858 18.1525L22.729 27.8262L14.5 21.8475L6.27101 27.8262L9.4142 18.1525L1.18521 12.1738H11.3568L14.5 2.5Z" fill="#EE9D2B"/>
<path d="M42.5 2.5L45.6432 12.1738H55.8148L47.5858 18.1525L50.729 27.8262L42.5 21.8475L34.271 27.8262L37.4142 18.1525L29.1852 12.1738H39.3568L42.5 2.5Z" fill="#EE9D2B"/>
<path d="M70.5 2.5L73.6432 12.1738H83.8148L75.5858 18.1525L78.729 27.8262L70.5 21.8475L62.271 27.8262L65.4142 18.1525L57.1852 12.1738H67.3568L70.5 2.5Z" fill="#EE9D2B"/>
<path d="M98.5 2.5L101.643 12.1738H111.815L103.586 18.1525L106.729 27.8262L98.5 21.8475L90.271 27.8262L93.4142 18.1525L85.1852 12.1738H95.3568L98.5 2.5Z" fill="#EE9D2B"/>
<path d="M126.5 2.5L129.643 12.1738H139.815L131.586 18.1525L134.729 27.8262L126.5 21.8475L118.271 27.8262L121.414 18.1525L113.185 12.1738H123.357L126.5 2.5Z" fill="url(#paint0_linear_58_157)"/>
<defs>
<linearGradient id="paint0_linear_58_157" x1="114" y1="13" x2="138" y2="13" gradientUnits="userSpaceOnUse">
<stop offset="0.513963" stop-color="#EE9D2B"/>
<stop offset="0.523959" stop-color="#7E7E7E"/>
</linearGradient>
</defs>
</svg>
