<svg width="100" height="101" viewBox="0 0 100 101" fill="none" xmlns="http://www.w3.org/2000/svg">
<rect y="0.5" width="100" height="100" rx="20" fill="white"/>
<g clip-path="url(#clip0_256_383)">
<path d="M16.7088 68.8245L24.3355 76.4511L22.2844 78.5L14.6577 70.8756L16.7088 68.8245Z" fill="#E9E5FF"/>
<path d="M24.1378 76.2489L31.7622 83.8756L29.7111 85.9267L22.0889 78.3L24.1378 76.2489Z" fill="#8F8F8F"/>
<path d="M23.94 64.36L31.5667 71.9867L29.5156 74.0378L21.8889 66.4111L23.94 64.36Z" fill="#8F8F8F"/>
<path d="M29.9957 70.4156L37.6223 78.0422L35.5712 80.0934L27.9468 72.4667L29.9957 70.4156ZM38.6823 49.6178L46.3068 57.2445L44.2557 59.2956L36.6312 51.6689L38.6823 49.6178Z" fill="#E9E5FF"/>
<path d="M44.7354 55.6755L52.3621 63.3L50.311 65.3511L42.6843 57.7266L44.7354 55.6755Z" fill="#8F8F8F"/>
<path d="M43.2667 42.4489L50.8933 50.0755L48.8444 52.1266L41.2178 44.5L43.2667 42.4489Z" fill="#8F8F8F"/>
<path d="M50.6156 49.7955L58.2422 57.4222L56.1911 59.4733L48.5645 51.8466L50.6156 49.7955Z" fill="#E9E5FF"/>
<path d="M49.1466 36.5688L56.7732 44.1955L54.7221 46.2444L47.0955 38.62L49.1466 36.5688Z" fill="#E9E5FF"/>
<path d="M56.4957 43.9178L64.1223 51.5422L62.0712 53.5933L54.4468 45.9667L56.4957 43.9178ZM64.1934 21.5222L71.8201 29.1489L69.769 31.1978L62.1423 23.5733L64.1934 21.5222Z" fill="#8F8F8F"/>
<path d="M71.5423 28.8711L79.169 36.4955L77.1179 38.5466L69.4912 30.92L71.5423 28.8711Z" fill="#E9E5FF"/>
<path d="M70.0289 15.5044L77.6556 23.1311L75.6044 25.1822L67.9778 17.5555L70.0289 15.5044Z" fill="#E9E5FF"/>
<path d="M77.4666 22.9445L85.0933 30.5689L83.0422 32.62L75.4155 24.9956L77.4666 22.9445Z" fill="#8F8F8F"/>
<path d="M65.3822 12.3045C59.7822 17.9045 59.6022 25.96 60.0578 34.0956C61.1711 34.1578 62.2844 34.2311 63.3955 34.3045C64.2622 34.3622 65.1178 34.4178 65.9711 34.4689C65.5311 27.1667 65.5289 20.4711 69.54 16.46C71.1555 14.8978 71.6622 12.7867 70.5333 11.6467C69.3444 10.4467 67.1067 10.5422 65.3822 12.3045Z" fill="#9266CC"/>
<path d="M39.2132 67.5L38.8732 61.5889C38.8155 60.6 38.7443 59.5912 38.7088 58.6289C38.051 57.9712 33.2288 57.8534 32.8132 58.2689C32.8421 59.2467 32.9177 60.2334 32.971 61.2178C33.0332 62.3334 33.251 66.2734 33.3021 67.1289C33.4221 69.1512 33.5155 71.1423 33.4932 73.0312C34.0688 73.6067 38.7621 74.0023 39.371 73.3912C39.389 71.4262 39.3363 69.4612 39.2132 67.5Z" fill="#A79BFB"/>
<path d="M39.3778 73.3889L33.4912 73.0289C33.4334 77.9378 32.6378 82.24 29.7423 85.1356C29.1909 85.6867 28.8811 86.4342 28.8809 87.2137C28.8807 87.9932 29.1901 88.7409 29.7412 89.2923C30.2922 89.8436 31.0398 90.1535 31.8193 90.1537C32.5988 90.1539 33.3465 89.8444 33.8978 89.2934C39.2823 83.9112 39.3801 73.3512 39.3778 73.3889Z" fill="#A79BFB"/>
<path d="M66.3422 40.3822C65.2289 40.32 64.1134 40.2467 63.0022 40.1734C62.1378 40.1156 61.28 40.06 60.4289 40.0089C60.8689 47.3089 60.8711 54.0067 56.8578 58.0178C52.8489 62.0267 46.1622 62.0289 38.8711 61.5889C38.0134 61.5378 34.0734 61.2778 32.9689 61.2156C24.82 60.7578 16.7534 60.9356 11.1467 66.5422C10.5956 67.0936 10.2862 67.8413 10.2864 68.6208C10.2866 69.4003 10.5965 70.1478 11.1478 70.6989C11.6992 71.25 12.4468 71.5594 13.2264 71.5592C14.0059 71.559 14.7534 71.2492 15.3045 70.6978C19.3156 66.6889 26.0045 66.6845 33.3 67.1245C34.1556 67.1756 38.1023 67.4356 39.2111 67.4978C47.3489 67.9534 55.4089 67.7756 61.0134 62.1734C66.6156 56.5734 66.7978 48.5178 66.3422 40.3822Z" fill="#9266CC"/>
<path d="M89.0689 30.1156C88.1355 29.1467 85.9911 28.78 83.9777 30.9C79.9666 34.9112 73.2733 34.9134 65.9689 34.4712C65.1155 34.42 61.1689 34.1578 60.0555 34.0956C51.9222 33.64 43.8644 33.8223 38.2644 39.4223C33.3422 44.3445 32.6089 51.1645 32.8133 58.2667C34.0422 58.3334 37.9666 58.5823 38.7089 58.6267C38.4911 52.5045 38.96 47.04 42.4222 43.5778C46.4333 39.5667 53.1289 39.5667 60.4311 40.0067C61.2822 40.0578 65.2311 40.3178 66.3444 40.38C74.48 40.8356 82.5355 40.6556 88.1355 35.0556C90.1044 33.1245 90.0022 31.0845 89.0689 30.1156Z" fill="#A79BFB"/>
</g>
<defs>
<clipPath id="clip0_256_383">
<rect width="80" height="80" fill="white" transform="translate(10 10.5)"/>
</clipPath>
</defs>
</svg>
