<svg width="48" height="48" viewBox="0 0 48 48" fill="none" xmlns="http://www.w3.org/2000/svg">
<path d="M24.014 4.32676C30.4265 4.32676 31.1859 4.35488 33.7078 4.46738C36.0515 4.57051 37.3172 4.96426 38.1609 5.29238C39.2765 5.72363 40.0828 6.24863 40.9172 7.08301C41.7609 7.92676 42.2765 8.72363 42.7078 9.83926C43.0359 10.683 43.4297 11.958 43.5328 14.2924C43.6453 16.8236 43.6734 17.583 43.6734 23.9861C43.6734 30.3986 43.6453 31.158 43.5328 33.6799C43.4297 36.0236 43.0359 37.2893 42.7078 38.133C42.2765 39.2486 41.7515 40.0549 40.9172 40.8893C40.0734 41.733 39.2765 42.2486 38.1609 42.6799C37.3172 43.008 36.0422 43.4018 33.7078 43.5049C31.1765 43.6174 30.4172 43.6455 24.014 43.6455C17.6015 43.6455 16.8422 43.6174 14.3203 43.5049C11.9765 43.4018 10.7109 43.008 9.86716 42.6799C8.75154 42.2486 7.94529 41.7236 7.11091 40.8893C6.26716 40.0455 5.75154 39.2486 5.32029 38.133C4.99216 37.2893 4.59841 36.0143 4.49529 33.6799C4.38279 31.1486 4.35466 30.3893 4.35466 23.9861C4.35466 17.5736 4.38279 16.8143 4.49529 14.2924C4.59841 11.9486 4.99216 10.683 5.32029 9.83926C5.75154 8.72363 6.27654 7.91738 7.11091 7.08301C7.95466 6.23926 8.75154 5.72363 9.86716 5.29238C10.7109 4.96426 11.9859 4.57051 14.3203 4.46738C16.8422 4.35488 17.6015 4.32676 24.014 4.32676ZM24.014 0.00488281C17.4984 0.00488281 16.6828 0.0330078 14.1234 0.145508C11.5734 0.258008 9.82029 0.670508 8.30154 1.26113C6.71716 1.87988 5.37654 2.69551 4.04529 4.03613C2.70466 5.36738 1.88904 6.70801 1.27029 8.28301C0.679663 9.81113 0.267163 11.5549 0.154663 14.1049C0.0421631 16.6736 0.0140381 17.4893 0.0140381 24.0049C0.0140381 30.5205 0.0421631 31.3361 0.154663 33.8955C0.267163 36.4455 0.679663 38.1986 1.27029 39.7174C1.88904 41.3018 2.70466 42.6424 4.04529 43.9736C5.37654 45.3049 6.71716 46.1299 8.29216 46.7393C9.82029 47.3299 11.564 47.7424 14.114 47.8549C16.6734 47.9674 17.489 47.9955 24.0047 47.9955C30.5203 47.9955 31.3359 47.9674 33.8953 47.8549C36.4453 47.7424 38.1984 47.3299 39.7172 46.7393C41.2922 46.1299 42.6328 45.3049 43.964 43.9736C45.2953 42.6424 46.1203 41.3018 46.7297 39.7268C47.3203 38.1986 47.7328 36.4549 47.8453 33.9049C47.9578 31.3455 47.9859 30.5299 47.9859 24.0143C47.9859 17.4986 47.9578 16.683 47.8453 14.1236C47.7328 11.5736 47.3203 9.82051 46.7297 8.30176C46.139 6.70801 45.3234 5.36738 43.9828 4.03613C42.6515 2.70488 41.3109 1.87988 39.7359 1.27051C38.2078 0.679883 36.464 0.267383 33.914 0.154883C31.3453 0.0330078 30.5297 0.00488281 24.014 0.00488281Z" fill="white"/>
<path d="M24.0125 11.6719C17.2067 11.6719 11.6852 17.1938 11.6852 24C11.6852 30.8062 17.2067 36.3281 24.0125 36.3281C30.8183 36.3281 36.3398 30.8062 36.3398 24C36.3398 17.1938 30.8183 11.6719 24.0125 11.6719ZM24.0125 31.9969C19.5972 31.9969 16.0161 28.4156 16.0161 24C16.0161 19.5844 19.5972 16.0031 24.0125 16.0031C28.4278 16.0031 32.0089 19.5844 32.0089 24C32.0089 28.4156 28.4278 31.9969 24.0125 31.9969Z" fill="white"/>
<path d="M39.7056 11.1843C39.7056 12.778 38.4118 14.0624 36.8275 14.0624C35.2337 14.0624 33.9493 12.7687 33.9493 11.1843C33.9493 9.59053 35.2431 8.30615 36.8275 8.30615C38.4118 8.30615 39.7056 9.5999 39.7056 11.1843Z" fill="white"/>
</svg>
