<svg width="49" height="48" viewBox="0 0 49 48" fill="none" xmlns="http://www.w3.org/2000/svg">
<path d="M45.4328 0H4.52965C2.57028 0 0.985901 1.54688 0.985901 3.45938V44.5312C0.985901 46.4437 2.57028 48 4.52965 48H45.4328C47.3922 48 48.9859 46.4438 48.9859 44.5406V3.45938C48.9859 1.54688 47.3922 0 45.4328 0ZM15.2265 40.9031H8.10153V17.9906H15.2265V40.9031ZM11.664 14.8688C9.37653 14.8688 7.52965 13.0219 7.52965 10.7437C7.52965 8.46562 9.37653 6.61875 11.664 6.61875C13.9422 6.61875 15.789 8.46562 15.789 10.7437C15.789 13.0125 13.9422 14.8688 11.664 14.8688ZM41.889 40.9031H34.7734V29.7656C34.7734 27.1125 34.7265 23.6906 31.0703 23.6906C27.3671 23.6906 26.8046 26.5875 26.8046 29.5781V40.9031H19.6984V17.9906H26.5234V21.1219H26.6171C27.564 19.3219 29.889 17.4188 33.3484 17.4188C40.5578 17.4188 41.889 22.1625 41.889 28.3313V40.9031Z" fill="white"/>
</svg>
