<svg width="18" height="14" viewBox="0 0 18 14" fill="none" xmlns="http://www.w3.org/2000/svg">
<path d="M8.01923 1.47368V9.57895C8.01815 10.7511 7.60448 11.8749 6.86899 12.7038C6.13351 13.5326 5.13629 13.9988 4.09615 14C3.92274 14 3.75643 13.9224 3.63381 13.7842C3.51119 13.646 3.44231 13.4586 3.44231 13.2632C3.44231 13.0677 3.51119 12.8803 3.63381 12.7421C3.75643 12.6039 3.92274 12.5263 4.09615 12.5263C4.7898 12.5263 5.45503 12.2158 5.94551 11.6631C6.43599 11.1103 6.71154 10.3606 6.71154 9.57895V8.8421H1.80769C1.46087 8.8421 1.12825 8.68684 0.883014 8.41047C0.637774 8.1341 0.5 7.75927 0.5 7.36842V1.47368C0.5 1.08284 0.637774 0.708001 0.883014 0.431632C1.12825 0.155263 1.46087 0 1.80769 0H6.71154C7.05836 0 7.39098 0.155263 7.63622 0.431632C7.88146 0.708001 8.01923 1.08284 8.01923 1.47368ZM16.1923 0H11.2885C10.9416 0 10.609 0.155263 10.3638 0.431632C10.1185 0.708001 9.98077 1.08284 9.98077 1.47368V7.36842C9.98077 7.75927 10.1185 8.1341 10.3638 8.41047C10.609 8.68684 10.9416 8.8421 11.2885 8.8421H16.1923V9.57895C16.1923 10.3606 15.9168 11.1103 15.4263 11.6631C14.9358 12.2158 14.2706 12.5263 13.5769 12.5263C13.4035 12.5263 13.2372 12.6039 13.1146 12.7421C12.992 12.8803 12.9231 13.0677 12.9231 13.2632C12.9231 13.4586 12.992 13.646 13.1146 13.7842C13.2372 13.9224 13.4035 14 13.5769 14C14.6171 13.9988 15.6143 13.5326 16.3498 12.7038C17.0852 11.8749 17.4989 10.7511 17.5 9.57895V1.47368C17.5 1.08284 17.3622 0.708001 17.117 0.431632C16.8717 0.155263 16.5391 0 16.1923 0Z" fill="white"/>
</svg>
