<svg width="100" height="101" viewBox="0 0 100 101" fill="none" xmlns="http://www.w3.org/2000/svg">
<rect y="0.5" width="100" height="100" rx="20" fill="white"/>
<path d="M36.1538 43.8462C34.0239 43.8462 31.9418 44.4778 30.1708 45.6611C28.3998 46.8444 27.0195 48.5264 26.2044 50.4942C25.3893 52.462 25.176 54.6273 25.5915 56.7164C26.0071 58.8054 27.0327 60.7243 28.5389 62.2304C30.045 63.7365 31.9638 64.7622 34.0529 65.1777C36.1419 65.5932 38.3072 65.3799 40.2751 64.5648C42.2429 63.7498 43.9248 62.3694 45.1081 60.5984C46.2915 58.8275 46.9231 56.7453 46.9231 54.6154C46.9231 51.7592 45.7885 49.02 43.7688 47.0004C41.7492 44.9808 39.01 43.8462 36.1538 43.8462ZM36.1538 59.2308C35.241 59.2308 34.3487 58.9601 33.5897 58.4529C32.8307 57.9458 32.2391 57.225 31.8898 56.3816C31.5405 55.5383 31.4491 54.6103 31.6271 53.715C31.8052 52.8197 32.2448 51.9973 32.8903 51.3518C33.5357 50.7063 34.3581 50.2668 35.2534 50.0887C36.1487 49.9106 37.0767 50.002 37.9201 50.3513C38.7634 50.7006 39.4843 51.2922 39.9914 52.0512C40.4985 52.8102 40.7692 53.7025 40.7692 54.6154C40.7692 55.8395 40.283 57.0134 39.4174 57.8789C38.5519 58.7445 37.3779 59.2308 36.1538 59.2308ZM63.8462 43.8462C61.7162 43.8462 59.6341 44.4778 57.8631 45.6611C56.0921 46.8444 54.7118 48.5264 53.8967 50.4942C53.0816 52.462 52.8683 54.6273 53.2839 56.7164C53.6994 58.8054 54.7251 60.7243 56.2312 62.2304C57.7373 63.7365 59.6562 64.7622 61.7452 65.1777C63.8342 65.5932 65.9995 65.3799 67.9674 64.5648C69.9352 63.7498 71.6171 62.3694 72.8004 60.5984C73.9838 58.8275 74.6154 56.7453 74.6154 54.6154C74.6154 51.7592 73.4808 49.02 71.4612 47.0004C69.4415 44.9808 66.7023 43.8462 63.8462 43.8462ZM63.8462 59.2308C62.9333 59.2308 62.041 58.9601 61.282 58.4529C60.523 57.9458 59.9314 57.225 59.5821 56.3816C59.2328 55.5383 59.1414 54.6103 59.3195 53.715C59.4975 52.8197 59.9371 51.9973 60.5826 51.3518C61.2281 50.7063 62.0504 50.2668 62.9457 50.0887C63.841 49.9106 64.769 50.002 65.6124 50.3513C66.4557 50.7006 67.1766 51.2922 67.6837 52.0512C68.1908 52.8102 68.4615 53.7025 68.4615 54.6154C68.4615 55.8395 67.9753 57.0134 67.1097 57.8789C66.2442 58.7445 65.0702 59.2308 63.8462 59.2308ZM50 10C27.9423 10 10 27.2538 10 48.4615C10 61.5769 17.0269 73.8461 28.4615 80.8769V86.9231C28.4615 88.5552 29.1099 90.1204 30.264 91.2745C31.418 92.4286 32.9833 93.0769 34.6154 93.0769H65.3846C67.0167 93.0769 68.582 92.4286 69.736 91.2745C70.8901 90.1204 71.5385 88.5552 71.5385 86.9231V80.8769C82.9731 73.8461 90 61.5769 90 48.4615C90 27.2538 72.0577 10 50 10ZM66.9692 76.4192C66.4888 76.6857 66.0885 77.0759 65.8098 77.5493C65.5312 78.0228 65.3843 78.5622 65.3846 79.1115V86.9231H59.2308V77.6923C59.2308 76.8763 58.9066 76.0936 58.3296 75.5166C57.7525 74.9396 56.9699 74.6154 56.1538 74.6154C55.3378 74.6154 54.5552 74.9396 53.9781 75.5166C53.4011 76.0936 53.0769 76.8763 53.0769 77.6923V86.9231H46.9231V77.6923C46.9231 76.8763 46.5989 76.0936 46.0219 75.5166C45.4448 74.9396 44.6622 74.6154 43.8462 74.6154C43.0301 74.6154 42.2475 74.9396 41.6704 75.5166C41.0934 76.0936 40.7692 76.8763 40.7692 77.6923V86.9231H34.6154V79.1115C34.6157 78.5622 34.4688 78.0228 34.1902 77.5493C33.9115 77.0759 33.5112 76.6857 33.0308 76.4192C22.6192 70.65 16.1538 59.9385 16.1538 48.4615C16.1538 30.6462 31.3385 16.1538 50 16.1538C68.6615 16.1538 83.8462 30.6462 83.8462 48.4615C83.8462 59.9346 77.3808 70.65 66.9692 76.4192Z" fill="#9266CC"/>
</svg>
