<svg width="140" height="33" viewBox="0 0 140 33" fill="none" xmlns="http://www.w3.org/2000/svg">
<path d="M14 0L17.1432 9.67376H27.3148L19.0858 15.6525L22.229 25.3262L14 19.3475L5.77101 25.3262L8.9142 15.6525L0.685208 9.67376H10.8568L14 0Z" fill="#EE9D2B"/>
<path d="M42 0L45.1432 9.67376H55.3148L47.0858 15.6525L50.229 25.3262L42 19.3475L33.771 25.3262L36.9142 15.6525L28.6852 9.67376H38.8568L42 0Z" fill="#EE9D2B"/>
<path d="M70 0L73.1432 9.67376H83.3148L75.0858 15.6525L78.229 25.3262L70 19.3475L61.771 25.3262L64.9142 15.6525L56.6852 9.67376H66.8568L70 0Z" fill="#EE9D2B"/>
<path d="M98 0L101.143 9.67376H111.315L103.086 15.6525L106.229 25.3262L98 19.3475L89.771 25.3262L92.9142 15.6525L84.6852 9.67376H94.8568L98 0Z" fill="#EE9D2B"/>
<path d="M126 0L129.143 9.67376H139.315L131.086 15.6525L134.229 25.3262L126 19.3475L117.771 25.3262L120.914 15.6525L112.685 9.67376H122.857L126 0Z" fill="#EE9D2B"/>
</svg>
