<svg width="36" height="36" viewBox="0 0 36 36" fill="none" xmlns="http://www.w3.org/2000/svg">
<rect x="36" y="36" width="36" height="36" rx="10" transform="rotate(180 36 36)" fill="#E0E0E0"/>
<path d="M11 10C11 9.46957 11.2107 8.96086 11.5858 8.58579C11.9609 8.21071 12.4696 8 13 8H23C23.5304 8 24.0391 8.21071 24.4142 8.58579C24.7893 8.96086 25 9.46957 25 10V15C25 16.8565 24.2625 18.637 22.9497 19.9497C21.637 21.2625 19.8565 22 18 22C16.1435 22 14.363 21.2625 13.0503 19.9497C11.7375 18.637 11 16.8565 11 15V10ZM15 28H21L18 23L15 28Z" stroke="black" stroke-width="2" stroke-linecap="round" stroke-linejoin="round"/>
<path d="M11 10H10C9.46957 10 8.96086 10.2107 8.58579 10.5858C8.21071 10.9609 8 11.4696 8 12V13.239C7.99998 13.966 8.19809 14.6792 8.57303 15.3021C8.94796 15.9249 9.48555 16.4338 10.128 16.774L11.5 17.5M25 10H26C26.5304 10 27.0391 10.2107 27.4142 10.5858C27.7893 10.9609 28 11.4696 28 12V12.637C28.0001 13.5458 27.7525 14.4374 27.2838 15.216C26.8151 15.9946 26.1431 16.6307 25.34 17.056L24.5 17.5" stroke="black" stroke-width="2" stroke-linejoin="round"/>
</svg>
