<svg width="59" height="71" viewBox="0 0 59 71" fill="none" xmlns="http://www.w3.org/2000/svg">
<path d="M29.4452 26.3689C32.9217 26.3689 36.2558 24.9878 38.7141 22.5296C41.1724 20.0713 42.5534 16.7372 42.5534 13.2606C42.5534 9.78409 41.1724 6.44995 38.7141 3.99167C36.2558 1.53339 32.9217 0.152344 29.4452 0.152344C25.9686 0.152344 22.6345 1.53339 20.1762 3.99167C17.7179 6.44995 16.3369 9.78409 16.3369 13.2606C16.3369 16.7372 17.7179 20.0713 20.1762 22.5296C22.6345 24.9878 25.9686 26.3689 29.4452 26.3689ZM0.89097 54.7439C0.487428 55.827 0.443774 57.0112 0.766483 58.121C1.08919 59.2309 1.76107 60.2071 2.68243 60.9048C10.3342 66.8534 19.7532 70.0766 29.4452 70.0631C39.5385 70.0631 48.8367 66.6375 56.2341 60.8874C58.113 59.4323 58.8732 56.9418 58.0168 54.7265C55.7982 48.9502 51.8802 43.9824 46.78 40.4787C41.6798 36.9751 35.6371 35.1003 29.4494 35.1017C23.2617 35.1031 17.2198 36.9807 12.1212 40.4867C7.02265 43.9927 3.10696 48.9623 0.89097 54.7396" fill="#6F63BD"/>
</svg>
