<svg width="49" height="34" viewBox="0 0 49 34" fill="none" xmlns="http://www.w3.org/2000/svg">
<path d="M48.5077 7.40449C48.5077 7.40449 48.039 4.09512 46.5952 2.64199C44.7671 0.729492 42.7233 0.720117 41.7858 0.607617C35.0733 0.120117 24.9952 0.120117 24.9952 0.120117H24.9765C24.9765 0.120117 14.8983 0.120117 8.18584 0.607617C7.24834 0.720117 5.20459 0.729492 3.37646 2.64199C1.93271 4.09512 1.47334 7.40449 1.47334 7.40449C1.47334 7.40449 0.98584 11.2951 0.98584 15.1764V18.8139C0.98584 22.6951 1.46396 26.5857 1.46396 26.5857C1.46396 26.5857 1.93271 29.8951 3.36709 31.3482C5.19521 33.2607 7.59522 33.1951 8.66397 33.4014C12.5077 33.767 24.9858 33.8795 24.9858 33.8795C24.9858 33.8795 35.0733 33.8607 41.7858 33.3826C42.7233 33.2701 44.7671 33.2607 46.5952 31.3482C48.039 29.8951 48.5077 26.5857 48.5077 26.5857C48.5077 26.5857 48.9858 22.7045 48.9858 18.8139V15.1764C48.9858 11.2951 48.5077 7.40449 48.5077 7.40449ZM20.0265 23.2295V9.73887L32.9921 16.5076L20.0265 23.2295Z" fill="white"/>
</svg>
