<svg width="200" height="200" viewBox="0 0 163 164" fill="none" xmlns="http://www.w3.org/2000/svg">
<path d="M11.2309 93.1195C9.75602 83.9062 10.1103 74.4927 12.2735 65.4164C14.4366 56.34 18.3663 47.7786 23.8382 40.221C29.3101 32.6634 36.217 26.2575 44.1645 21.3691C52.1121 16.4808 60.9446 13.2057 70.1579 11.7308C79.3711 10.256 88.7847 10.6103 97.861 12.7735C106.937 14.9366 115.499 18.8663 123.056 24.3382C130.614 29.8101 137.02 36.717 141.908 44.6645C146.797 52.6121 150.072 61.4446 151.547 70.6579L130.499 74.0271C129.467 67.5778 127.174 61.395 123.752 55.8318C120.331 50.2685 115.846 45.4337 110.556 41.6033C105.266 37.773 99.2728 35.0222 92.9193 33.508C86.5659 31.9938 79.9764 31.7458 73.5271 32.7782C67.0778 33.8106 60.8951 36.1032 55.3318 39.525C49.7685 42.9468 44.9337 47.431 41.1034 52.7213C37.2731 58.0116 34.5223 64.0046 33.008 70.3581C31.4938 76.7115 31.2458 83.301 32.2782 89.7503L11.2309 93.1195Z" fill="#ACA2F0"/>
<path d="M152.276 78.6242C153.146 95.9039 147.682 112.908 136.908 126.445C126.134 139.983 110.791 149.124 93.7564 152.154C76.7221 155.183 59.1676 151.893 44.3864 142.901C29.6052 133.909 18.6131 119.832 13.4723 103.312L33.825 96.9782C37.4235 108.542 45.118 118.396 55.4649 124.691C65.8117 130.986 78.0998 133.288 90.0238 131.168C101.948 129.047 112.688 122.648 120.23 113.172C127.772 103.695 131.597 91.7928 130.987 79.6971L152.276 78.6242Z" fill="#6F63BD"/>
<path d="M59.8823 74.6731V83.384H61.9331V84.8684H59.8823V87.759H58.1245V84.8684H52.1479V84.2239C52.8901 83.4296 53.6779 82.5442 54.5112 81.5676C55.3576 80.5911 56.1844 79.5299 56.9917 78.384C57.812 77.2252 58.5607 75.9882 59.2378 74.6731H59.8823ZM58.1245 78.97C57.6037 79.7773 57.0763 80.5585 56.5425 81.3137C56.0086 82.0559 55.4552 82.746 54.8823 83.384H58.1245V78.97ZM70.9761 74.6731C70.5724 75.0507 70.0972 75.4869 69.5503 75.9817C69.0034 76.4765 68.45 77.0038 67.8901 77.5637C67.3302 78.1236 66.8289 78.6835 66.3862 79.2434C65.9435 79.8033 65.6245 80.3372 65.4292 80.845C65.7547 80.4413 66.1649 80.0767 66.6597 79.7512C67.1545 79.4257 67.7078 79.2629 68.3198 79.2629C69.1792 79.2629 69.9149 79.4583 70.5269 79.8489C71.1388 80.2265 71.6076 80.7278 71.9331 81.3528C72.2716 81.9648 72.4409 82.6223 72.4409 83.3254C72.4409 83.8853 72.3368 84.4452 72.1284 85.0051C71.9331 85.565 71.6401 86.0793 71.2495 86.5481C70.8719 87.0038 70.4097 87.3684 69.8628 87.6418C69.3159 87.9153 68.6974 88.052 68.0073 88.052C67.1349 88.052 66.3407 87.8502 65.6245 87.4465C64.9214 87.0429 64.355 86.4635 63.9253 85.7083C63.5086 84.953 63.3003 84.0546 63.3003 83.0129C63.3003 82.3098 63.4305 81.6197 63.6909 80.9426C63.9513 80.2525 64.2834 79.595 64.687 78.97C65.1037 78.3319 65.5464 77.7395 66.0151 77.1926C66.4839 76.6458 66.9266 76.1575 67.3433 75.7278C67.7599 75.2981 68.105 74.9465 68.3784 74.6731H70.9761ZM67.9097 80.845C67.4279 80.845 66.9591 80.9622 66.5034 81.1965C66.0477 81.4179 65.6766 81.7304 65.3901 82.134C65.1037 82.5247 64.9604 82.9869 64.9604 83.5208C64.9604 84.1067 65.1037 84.621 65.3901 85.0637C65.6766 85.5064 66.0477 85.8515 66.5034 86.0989C66.9591 86.3463 67.4279 86.47 67.9097 86.47C68.4045 86.47 68.8667 86.3463 69.2964 86.0989C69.7391 85.8515 70.0972 85.5064 70.3706 85.0637C70.644 84.621 70.7808 84.1067 70.7808 83.5208C70.7808 82.9869 70.644 82.5247 70.3706 82.134C70.0972 81.7304 69.7391 81.4179 69.2964 81.1965C68.8667 80.9622 68.4045 80.845 67.9097 80.845ZM76.0347 85.3762C76.4123 85.3762 76.7313 85.5129 76.9917 85.7864C77.2651 86.0468 77.4019 86.3658 77.4019 86.7434C77.4019 87.108 77.2651 87.427 76.9917 87.7004C76.7313 87.9739 76.4123 88.1106 76.0347 88.1106C75.6571 88.1106 75.3315 87.9739 75.0581 87.7004C74.7977 87.427 74.6675 87.108 74.6675 86.7434C74.6675 86.3658 74.7977 86.0468 75.0581 85.7864C75.3315 85.5129 75.6571 85.3762 76.0347 85.3762ZM84.394 74.3801C85.2404 74.3801 85.9696 74.5754 86.5815 74.9661C87.2065 75.3567 87.7209 75.884 88.1245 76.5481C88.5282 77.1991 88.8276 77.9283 89.0229 78.7356C89.2313 79.5429 89.3354 80.3697 89.3354 81.2161C89.3354 82.0494 89.2313 82.8762 89.0229 83.6965C88.8276 84.5038 88.5282 85.2395 88.1245 85.9036C87.7209 86.5546 87.2065 87.0754 86.5815 87.4661C85.9696 87.8567 85.2404 88.052 84.394 88.052C83.5607 88.052 82.8315 87.8567 82.2065 87.4661C81.5815 87.0754 81.0672 86.5546 80.6636 85.9036C80.2599 85.2395 79.9539 84.5038 79.7456 83.6965C79.5503 82.8762 79.4526 82.0494 79.4526 81.2161C79.4526 80.3697 79.5503 79.5429 79.7456 78.7356C79.9539 77.9283 80.2599 77.1991 80.6636 76.5481C81.0672 75.884 81.5815 75.3567 82.2065 74.9661C82.8315 74.5754 83.5607 74.3801 84.394 74.3801ZM84.394 76.0989C83.8602 76.0989 83.3849 76.2486 82.9683 76.5481C82.5646 76.8346 82.2261 77.2252 81.9526 77.72C81.6792 78.2017 81.4709 78.7486 81.3276 79.3606C81.1844 79.9596 81.1128 80.578 81.1128 81.2161C81.1128 81.8541 81.1844 82.4791 81.3276 83.0911C81.4709 83.69 81.6792 84.2369 81.9526 84.7317C82.2261 85.2135 82.5646 85.6041 82.9683 85.9036C83.3849 86.19 83.8602 86.3333 84.394 86.3333C84.9279 86.3333 85.3966 86.19 85.8003 85.9036C86.217 85.6041 86.562 85.2135 86.8354 84.7317C87.1089 84.2369 87.3172 83.69 87.4604 83.0911C87.6037 82.4791 87.6753 81.8541 87.6753 81.2161C87.6753 80.578 87.6037 79.9596 87.4604 79.3606C87.3172 78.7486 87.1089 78.2017 86.8354 77.72C86.562 77.2252 86.217 76.8346 85.8003 76.5481C85.3966 76.2486 84.9279 76.0989 84.394 76.0989ZM101.191 74.2825L102.285 74.8098L94.2573 88.1497L93.2222 87.6223L101.191 74.2825ZM93.4565 74.3801C94.0425 74.3801 94.5568 74.5168 94.9995 74.7903C95.4552 75.0507 95.8068 75.4088 96.0542 75.8645C96.3016 76.3202 96.4253 76.8215 96.4253 77.3684C96.4253 77.9153 96.3016 78.4166 96.0542 78.8723C95.8068 79.328 95.4552 79.6926 94.9995 79.9661C94.5568 80.2265 94.0425 80.3567 93.4565 80.3567C92.8706 80.3567 92.3498 80.2265 91.894 79.9661C91.4513 79.6926 91.1063 79.328 90.8589 78.8723C90.6115 78.4166 90.4878 77.9153 90.4878 77.3684C90.4878 76.8215 90.6115 76.3202 90.8589 75.8645C91.1063 75.4088 91.4513 75.0507 91.894 74.7903C92.3498 74.5168 92.8706 74.3801 93.4565 74.3801ZM93.4761 75.7083C93.0203 75.7083 92.6362 75.871 92.3237 76.1965C92.0112 76.5221 91.855 76.9127 91.855 77.3684C91.855 77.8241 92.0112 78.2213 92.3237 78.5598C92.6362 78.8853 93.0203 79.0481 93.4761 79.0481C93.9318 79.0481 94.3094 78.8853 94.6089 78.5598C94.9214 78.2213 95.0776 77.8241 95.0776 77.3684C95.0776 76.9127 94.9214 76.5221 94.6089 76.1965C94.3094 75.871 93.9318 75.7083 93.4761 75.7083ZM102.05 82.0754C102.636 82.0754 103.151 82.2122 103.593 82.4856C104.049 82.746 104.401 83.1041 104.648 83.5598C104.895 84.0155 105.019 84.5168 105.019 85.0637C105.019 85.6106 104.895 86.1119 104.648 86.5676C104.401 87.0234 104.049 87.3879 103.593 87.6614C103.151 87.9218 102.636 88.052 102.05 88.052C101.464 88.052 100.944 87.9218 100.488 87.6614C100.045 87.3879 99.7 87.0234 99.4526 86.5676C99.2052 86.1119 99.0815 85.6106 99.0815 85.0637C99.0815 84.5168 99.2052 84.0155 99.4526 83.5598C99.7 83.1041 100.045 82.746 100.488 82.4856C100.944 82.2122 101.464 82.0754 102.05 82.0754ZM102.07 83.4036C101.614 83.4036 101.23 83.5663 100.917 83.8918C100.605 84.2174 100.449 84.608 100.449 85.0637C100.449 85.5194 100.605 85.9166 100.917 86.2551C101.23 86.5806 101.614 86.7434 102.07 86.7434C102.526 86.7434 102.903 86.5806 103.203 86.2551C103.515 85.9166 103.671 85.5194 103.671 85.0637C103.671 84.608 103.515 84.2174 103.203 83.8918C102.903 83.5663 102.526 83.4036 102.07 83.4036Z" fill="black"/>
</svg>
