<svg width="200" height="200" viewBox="0 0 200 200" fill="none" xmlns="http://www.w3.org/2000/svg">
<path d="M145.088 45.0883C159.055 56.5563 168.127 72.9154 170.458 90.8361L149.32 93.5853C147.689 81.0408 141.338 69.5895 131.562 61.5618L145.088 45.0883Z" fill="#ACA2F0"/>
<path d="M170.986 99.7591C170.986 115.508 165.754 130.811 156.111 143.263C146.468 155.714 132.961 164.609 117.713 168.55C102.465 172.491 86.3397 171.253 71.8713 165.033C57.4028 158.812 45.4111 147.961 37.7807 134.184C30.1502 120.406 27.3133 104.485 29.7159 88.9199C32.1185 73.3552 39.6244 59.0298 51.054 48.1948C62.4837 37.3599 77.1893 30.6295 92.8601 29.0612C108.531 27.4929 124.279 31.1756 137.629 39.5307L126.321 57.5992C116.976 51.7506 105.952 49.1727 94.9826 50.2705C84.0131 51.3683 73.7192 56.0796 65.7184 63.6641C57.7177 71.2486 52.4636 81.2763 50.7817 92.1716C49.0999 103.067 51.0857 114.212 56.4271 123.856C61.7684 133.5 70.1626 141.096 80.2905 145.451C90.4184 149.805 101.706 150.671 112.38 147.913C123.053 145.154 132.508 138.928 139.258 130.212C146.008 121.495 149.671 110.783 149.671 99.7591H170.986Z" fill="#6F63BD"/>
<path d="M77.3711 93.6206C78.1003 93.6206 78.7578 93.7703 79.3438 94.0698C79.9427 94.3563 80.418 94.7599 80.7695 95.2808C81.1211 95.8016 81.2969 96.4071 81.2969 97.0972C81.2969 97.8524 81.1146 98.4709 80.75 98.9526C80.3854 99.4214 79.9362 99.8055 79.4023 100.105C80.0143 100.391 80.5482 100.821 81.0039 101.394C81.4596 101.954 81.6875 102.605 81.6875 103.347C81.6875 104.076 81.5052 104.74 81.1406 105.339C80.7891 105.938 80.2878 106.414 79.6367 106.765C78.9857 107.117 78.2305 107.292 77.3711 107.292C76.5117 107.292 75.7565 107.117 75.1055 106.765C74.4674 106.414 73.9661 105.938 73.6016 105.339C73.237 104.74 73.0547 104.076 73.0547 103.347C73.0547 102.605 73.2826 101.954 73.7383 101.394C74.194 100.821 74.7279 100.391 75.3398 100.105C74.819 99.8055 74.3698 99.4214 73.9922 98.9526C73.6276 98.4709 73.4453 97.8524 73.4453 97.0972C73.4453 96.4071 73.6211 95.8016 73.9727 95.2808C74.3242 94.7599 74.793 94.3563 75.3789 94.0698C75.9779 93.7703 76.6419 93.6206 77.3711 93.6206ZM77.3711 95.2026C77.0065 95.2026 76.6484 95.2938 76.2969 95.4761C75.9453 95.6584 75.6589 95.9058 75.4375 96.2183C75.2161 96.5308 75.1055 96.8888 75.1055 97.2925C75.1055 97.6961 75.2161 98.0477 75.4375 98.3472C75.6589 98.6336 75.9453 98.8615 76.2969 99.0308C76.6484 99.187 77.0065 99.2651 77.3711 99.2651C77.7487 99.2651 78.1068 99.187 78.4453 99.0308C78.7969 98.8615 79.0833 98.6336 79.3047 98.3472C79.526 98.0477 79.6367 97.6961 79.6367 97.2925C79.6367 96.8888 79.526 96.5308 79.3047 96.2183C79.0833 95.9058 78.7969 95.6584 78.4453 95.4761C78.1068 95.2938 77.7487 95.2026 77.3711 95.2026ZM77.3711 100.906C76.9414 100.906 76.5182 101.01 76.1016 101.218C75.6979 101.427 75.3659 101.707 75.1055 102.058C74.8451 102.41 74.7148 102.807 74.7148 103.25C74.7148 103.679 74.832 104.083 75.0664 104.46C75.3008 104.838 75.6198 105.144 76.0234 105.378C76.4271 105.6 76.8763 105.71 77.3711 105.71C77.8789 105.71 78.3281 105.6 78.7188 105.378C79.1224 105.144 79.4414 104.838 79.6758 104.46C79.9102 104.083 80.0273 103.679 80.0273 103.25C80.0273 102.807 79.8971 102.41 79.6367 102.058C79.3763 101.707 79.0443 101.427 78.6406 101.218C78.237 101.01 77.8138 100.906 77.3711 100.906ZM87.5469 93.6206C88.4062 93.6206 89.168 93.7834 89.832 94.1089C90.5091 94.4344 91.0365 94.8836 91.4141 95.4565C91.8047 96.0164 92 96.661 92 97.3901C92 97.9761 91.8503 98.4709 91.5508 98.8745C91.2643 99.2782 90.9193 99.5972 90.5156 99.8315C90.112 100.066 89.7409 100.229 89.4023 100.32C89.7409 100.411 90.112 100.593 90.5156 100.867C90.9193 101.127 91.2643 101.472 91.5508 101.902C91.8503 102.332 92 102.839 92 103.425C92 104.154 91.8112 104.812 91.4336 105.398C91.069 105.984 90.5547 106.446 89.8906 106.785C89.2266 107.123 88.4648 107.292 87.6055 107.292C86.8372 107.292 86.1471 107.162 85.5352 106.902C84.9362 106.641 84.4674 106.355 84.1289 106.042V104.109C84.4284 104.317 84.7409 104.545 85.0664 104.792C85.3919 105.04 85.763 105.255 86.1797 105.437C86.5964 105.619 87.0846 105.71 87.6445 105.71C88.4258 105.71 89.0703 105.502 89.5781 105.085C90.0859 104.669 90.3398 104.083 90.3398 103.328C90.3398 102.898 90.2031 102.514 89.9297 102.175C89.6693 101.837 89.3242 101.57 88.8945 101.375C88.4779 101.179 88.0286 101.082 87.5469 101.082H86.375V99.519H87.5469C88.3672 99.519 89.0378 99.3433 89.5586 98.9917C90.0794 98.6271 90.3398 98.1258 90.3398 97.4878C90.3398 97.0321 90.2096 96.6349 89.9492 96.2964C89.6888 95.9578 89.3438 95.6909 88.9141 95.4956C88.4844 95.3003 88.0091 95.2026 87.4883 95.2026C86.8112 95.2026 86.2383 95.3524 85.7695 95.6519C85.3138 95.9383 84.8971 96.2703 84.5195 96.6479V94.7144C84.8581 94.4019 85.2943 94.1414 85.8281 93.9331C86.375 93.7248 86.9479 93.6206 87.5469 93.6206ZM96.4141 104.617C96.7917 104.617 97.1107 104.753 97.3711 105.027C97.6445 105.287 97.7812 105.606 97.7812 105.984C97.7812 106.348 97.6445 106.667 97.3711 106.941C97.1107 107.214 96.7917 107.351 96.4141 107.351C96.0365 107.351 95.7109 107.214 95.4375 106.941C95.1771 106.667 95.0469 106.348 95.0469 105.984C95.0469 105.606 95.1771 105.287 95.4375 105.027C95.7109 104.753 96.0365 104.617 96.4141 104.617ZM101.707 107C102.111 106.622 102.586 106.186 103.133 105.691C103.68 105.196 104.233 104.669 104.793 104.109C105.353 103.549 105.854 102.989 106.297 102.429C106.74 101.869 107.059 101.335 107.254 100.828C106.928 101.231 106.518 101.596 106.023 101.921C105.529 102.247 104.975 102.41 104.363 102.41C103.504 102.41 102.768 102.221 102.156 101.843C101.544 101.453 101.069 100.951 100.73 100.339C100.405 99.7144 100.242 99.0503 100.242 98.3472C100.242 97.7873 100.34 97.2274 100.535 96.6675C100.743 96.1076 101.036 95.5998 101.414 95.144C101.805 94.6753 102.273 94.3042 102.82 94.0308C103.367 93.7573 103.986 93.6206 104.676 93.6206C105.548 93.6206 106.336 93.8224 107.039 94.2261C107.755 94.6297 108.322 95.2091 108.738 95.9644C109.168 96.7196 109.383 97.618 109.383 98.6597C109.383 99.3628 109.253 100.059 108.992 100.75C108.732 101.427 108.393 102.084 107.977 102.722C107.573 103.347 107.137 103.933 106.668 104.48C106.199 105.027 105.757 105.515 105.34 105.945C104.923 106.375 104.578 106.726 104.305 107H101.707ZM104.773 100.828C105.255 100.828 105.724 100.717 106.18 100.496C106.635 100.261 107.007 99.9487 107.293 99.5581C107.579 99.1545 107.723 98.6857 107.723 98.1519C107.723 97.5659 107.579 97.0516 107.293 96.6089C107.007 96.1662 106.635 95.8211 106.18 95.5737C105.724 95.3263 105.255 95.2026 104.773 95.2026C104.279 95.2026 103.81 95.3263 103.367 95.5737C102.938 95.8211 102.586 96.1662 102.312 96.6089C102.039 97.0516 101.902 97.5659 101.902 98.1519C101.902 98.6857 102.039 99.1545 102.312 99.5581C102.586 99.9487 102.938 100.261 103.367 100.496C103.81 100.717 104.279 100.828 104.773 100.828ZM121.57 93.5229L122.664 94.0503L114.637 107.39L113.602 106.863L121.57 93.5229ZM113.836 93.6206C114.422 93.6206 114.936 93.7573 115.379 94.0308C115.835 94.2912 116.186 94.6493 116.434 95.105C116.681 95.5607 116.805 96.062 116.805 96.6089C116.805 97.1558 116.681 97.6571 116.434 98.1128C116.186 98.5685 115.835 98.9331 115.379 99.2065C114.936 99.467 114.422 99.5972 113.836 99.5972C113.25 99.5972 112.729 99.467 112.273 99.2065C111.831 98.9331 111.486 98.5685 111.238 98.1128C110.991 97.6571 110.867 97.1558 110.867 96.6089C110.867 96.062 110.991 95.5607 111.238 95.105C111.486 94.6493 111.831 94.2912 112.273 94.0308C112.729 93.7573 113.25 93.6206 113.836 93.6206ZM113.855 94.9487C113.4 94.9487 113.016 95.1115 112.703 95.437C112.391 95.7625 112.234 96.1532 112.234 96.6089C112.234 97.0646 112.391 97.4618 112.703 97.8003C113.016 98.1258 113.4 98.2886 113.855 98.2886C114.311 98.2886 114.689 98.1258 114.988 97.8003C115.301 97.4618 115.457 97.0646 115.457 96.6089C115.457 96.1532 115.301 95.7625 114.988 95.437C114.689 95.1115 114.311 94.9487 113.855 94.9487ZM122.43 101.316C123.016 101.316 123.53 101.453 123.973 101.726C124.428 101.986 124.78 102.345 125.027 102.8C125.275 103.256 125.398 103.757 125.398 104.304C125.398 104.851 125.275 105.352 125.027 105.808C124.78 106.264 124.428 106.628 123.973 106.902C123.53 107.162 123.016 107.292 122.43 107.292C121.844 107.292 121.323 107.162 120.867 106.902C120.424 106.628 120.079 106.264 119.832 105.808C119.585 105.352 119.461 104.851 119.461 104.304C119.461 103.757 119.585 103.256 119.832 102.8C120.079 102.345 120.424 101.986 120.867 101.726C121.323 101.453 121.844 101.316 122.43 101.316ZM122.449 102.644C121.993 102.644 121.609 102.807 121.297 103.132C120.984 103.458 120.828 103.848 120.828 104.304C120.828 104.76 120.984 105.157 121.297 105.496C121.609 105.821 121.993 105.984 122.449 105.984C122.905 105.984 123.283 105.821 123.582 105.496C123.895 105.157 124.051 104.76 124.051 104.304C124.051 103.848 123.895 103.458 123.582 103.132C123.283 102.807 122.905 102.644 122.449 102.644Z" fill="black"/>
</svg>
