<svg width="200" height="200" viewBox="0 0 200 200" fill="none" xmlns="http://www.w3.org/2000/svg">
<path d="M55.3045 44.6057C65.1795 36.6411 77.0069 31.4657 89.5581 29.6173C102.109 27.7689 114.927 29.3147 126.678 34.0943C138.43 38.8739 148.688 46.7129 156.386 56.797C164.084 66.8811 168.942 78.8425 170.454 91.4385L149.291 93.98C148.232 85.1628 144.832 76.7898 139.443 69.731C134.055 62.6721 126.874 57.1848 118.648 53.8391C110.422 50.4934 101.45 49.4112 92.6637 50.7052C83.8779 51.9991 75.5987 55.6218 68.6862 61.197L55.3045 44.6057Z" fill="#ACA2F0"/>
<path d="M170.293 99.0572C170.293 110.666 167.449 122.098 162.009 132.353C156.568 142.609 148.698 151.375 139.086 157.885C129.475 164.395 118.414 168.451 106.873 169.697C95.3308 170.944 83.6594 169.344 72.8792 165.036C62.099 160.729 52.5384 153.846 45.0338 144.989C37.5291 136.132 32.309 125.571 29.83 114.23C27.351 102.888 27.6887 91.1126 30.8135 79.9322C33.9383 68.7518 39.755 58.5073 47.7548 50.0949L63.2011 64.7836C57.6012 70.6723 53.5295 77.8434 51.3421 85.6697C49.1548 93.496 48.9184 101.739 50.6537 109.678C52.389 117.617 56.0431 125.009 61.2963 131.209C66.5496 137.409 73.2419 142.227 80.7881 145.243C88.3342 148.258 96.5042 149.378 104.583 148.505C112.663 147.633 120.405 144.794 127.133 140.236C133.861 135.679 139.371 129.543 143.179 122.365C146.987 115.186 148.978 107.183 148.978 99.0572H170.293Z" fill="#6F63BD"/>
<path d="M80.1655 93.458C79.7619 93.8356 79.2866 94.2718 78.7397 94.7666C78.1929 95.2614 77.6395 95.7887 77.0796 96.3486C76.5197 96.9085 76.0184 97.4684 75.5757 98.0283C75.133 98.5882 74.814 99.1221 74.6187 99.6299C74.9442 99.2262 75.3543 98.8617 75.8491 98.5361C76.3439 98.2106 76.8973 98.0479 77.5093 98.0479C78.3687 98.0479 79.1043 98.2432 79.7163 98.6338C80.3283 99.0114 80.797 99.5127 81.1226 100.138C81.4611 100.75 81.6304 101.407 81.6304 102.11C81.6304 102.67 81.5262 103.23 81.3179 103.79C81.1226 104.35 80.8296 104.864 80.439 105.333C80.0614 105.789 79.5991 106.153 79.0522 106.427C78.5054 106.7 77.8869 106.837 77.1968 106.837C76.3244 106.837 75.5301 106.635 74.814 106.231C74.1108 105.828 73.5444 105.248 73.1147 104.493C72.6981 103.738 72.4897 102.84 72.4897 101.798C72.4897 101.095 72.62 100.405 72.8804 99.7275C73.1408 99.0374 73.4728 98.3799 73.8765 97.7549C74.2931 97.1169 74.7358 96.5244 75.2046 95.9775C75.6733 95.4307 76.116 94.9424 76.5327 94.5127C76.9494 94.083 77.2944 93.7314 77.5679 93.458H80.1655ZM77.0991 99.6299C76.6174 99.6299 76.1486 99.7471 75.6929 99.9814C75.2371 100.203 74.866 100.515 74.5796 100.919C74.2931 101.31 74.1499 101.772 74.1499 102.306C74.1499 102.892 74.2931 103.406 74.5796 103.849C74.866 104.291 75.2371 104.636 75.6929 104.884C76.1486 105.131 76.6174 105.255 77.0991 105.255C77.5939 105.255 78.0562 105.131 78.4858 104.884C78.9285 104.636 79.2866 104.291 79.5601 103.849C79.8335 103.406 79.9702 102.892 79.9702 102.306C79.9702 101.772 79.8335 101.31 79.5601 100.919C79.2866 100.515 78.9285 100.203 78.4858 99.9814C78.0562 99.7471 77.5939 99.6299 77.0991 99.6299ZM87.2944 93.165C88.1538 93.165 88.909 93.3213 89.5601 93.6338C90.2111 93.9463 90.7189 94.3955 91.0835 94.9814C91.4481 95.5544 91.6304 96.238 91.6304 97.0322C91.6304 97.8786 91.4155 98.6859 90.9858 99.4541C90.5562 100.209 89.9442 101.017 89.1499 101.876C88.3687 102.735 87.4377 103.751 86.3569 104.923H91.728V106.544H83.5249V105.841C84.853 104.356 85.9989 103.1 86.9624 102.071C87.9259 101.03 88.6681 100.138 89.189 99.3955C89.7098 98.6533 89.9702 97.9958 89.9702 97.4229C89.9702 96.5765 89.6903 95.945 89.1304 95.5283C88.5835 95.0986 87.9194 94.8838 87.1382 94.8838C86.5002 94.8838 85.8947 95.0465 85.3218 95.3721C84.7619 95.6846 84.2931 96.0101 83.9155 96.3486V94.5127C84.2541 94.2002 84.7163 93.9007 85.3022 93.6143C85.8882 93.3148 86.5522 93.165 87.2944 93.165ZM95.9663 104.161C96.3439 104.161 96.6629 104.298 96.9233 104.571C97.1968 104.832 97.3335 105.151 97.3335 105.528C97.3335 105.893 97.1968 106.212 96.9233 106.485C96.6629 106.759 96.3439 106.896 95.9663 106.896C95.5887 106.896 95.2632 106.759 94.9897 106.485C94.7293 106.212 94.5991 105.893 94.5991 105.528C94.5991 105.151 94.7293 104.832 94.9897 104.571C95.2632 104.298 95.5887 104.161 95.9663 104.161ZM108.095 104.981V106.544H101.005V104.981H103.603V96.4658C103.212 96.8044 102.809 97.0387 102.392 97.1689C101.975 97.2992 101.559 97.4033 101.142 97.4814V95.8018C101.897 95.6064 102.555 95.2874 103.115 94.8447C103.675 94.402 104.137 93.9398 104.501 93.458H105.361V104.981H108.095ZM121.123 93.0674L122.216 93.5947L114.189 106.935L113.154 106.407L121.123 93.0674ZM113.388 93.165C113.974 93.165 114.488 93.3018 114.931 93.5752C115.387 93.8356 115.738 94.1937 115.986 94.6494C116.233 95.1051 116.357 95.6064 116.357 96.1533C116.357 96.7002 116.233 97.2015 115.986 97.6572C115.738 98.113 115.387 98.4775 114.931 98.751C114.488 99.0114 113.974 99.1416 113.388 99.1416C112.802 99.1416 112.281 99.0114 111.826 98.751C111.383 98.4775 111.038 98.113 110.791 97.6572C110.543 97.2015 110.419 96.7002 110.419 96.1533C110.419 95.6064 110.543 95.1051 110.791 94.6494C111.038 94.1937 111.383 93.8356 111.826 93.5752C112.281 93.3018 112.802 93.165 113.388 93.165ZM113.408 94.4932C112.952 94.4932 112.568 94.6559 112.255 94.9814C111.943 95.307 111.787 95.6976 111.787 96.1533C111.787 96.609 111.943 97.0062 112.255 97.3447C112.568 97.6702 112.952 97.833 113.408 97.833C113.863 97.833 114.241 97.6702 114.541 97.3447C114.853 97.0062 115.009 96.609 115.009 96.1533C115.009 95.6976 114.853 95.307 114.541 94.9814C114.241 94.6559 113.863 94.4932 113.408 94.4932ZM121.982 100.86C122.568 100.86 123.082 100.997 123.525 101.271C123.981 101.531 124.332 101.889 124.58 102.345C124.827 102.8 124.951 103.302 124.951 103.849C124.951 104.396 124.827 104.897 124.58 105.353C124.332 105.808 123.981 106.173 123.525 106.446C123.082 106.707 122.568 106.837 121.982 106.837C121.396 106.837 120.875 106.707 120.419 106.446C119.977 106.173 119.632 105.808 119.384 105.353C119.137 104.897 119.013 104.396 119.013 103.849C119.013 103.302 119.137 102.8 119.384 102.345C119.632 101.889 119.977 101.531 120.419 101.271C120.875 100.997 121.396 100.86 121.982 100.86ZM122.001 102.188C121.546 102.188 121.162 102.351 120.849 102.677C120.537 103.002 120.38 103.393 120.38 103.849C120.38 104.304 120.537 104.701 120.849 105.04C121.162 105.366 121.546 105.528 122.001 105.528C122.457 105.528 122.835 105.366 123.134 105.04C123.447 104.701 123.603 104.304 123.603 103.849C123.603 103.393 123.447 103.002 123.134 102.677C122.835 102.351 122.457 102.188 122.001 102.188Z" fill="black"/>
</svg>
