<svg width="200" height="200" viewBox="0 0 200 200" fill="none" xmlns="http://www.w3.org/2000/svg">
<path d="M43.0075 56.5563C51.6056 45.2494 63.3955 36.7793 76.8551 32.2394C90.3148 27.6994 104.826 27.298 118.516 31.0871C132.206 34.8761 144.446 42.6816 153.656 53.4959C162.866 64.3102 168.623 77.6369 170.184 91.7555L148.998 94.098C147.905 84.2149 143.876 74.8863 137.429 67.3162C130.982 59.7462 122.414 54.2824 112.83 51.6301C103.247 48.9777 93.0895 49.2587 83.6677 52.4367C74.246 55.6146 65.993 61.5437 59.9743 69.4585L43.0075 56.5563Z" fill="#ACA2F0"/>
<path d="M170.88 99.6529C170.88 110.507 168.394 121.217 163.611 130.961C158.828 140.705 151.876 149.223 143.289 155.863C134.702 162.502 124.708 167.085 114.074 169.261C103.44 171.438 92.4484 171.148 81.9436 168.416C71.4387 165.683 61.6996 160.581 53.4736 153.499C45.2476 146.417 38.7535 137.545 34.4897 127.563C30.2259 117.581 28.3058 106.755 28.8767 95.9158C29.4476 85.0764 32.4944 74.512 37.7832 65.0332L56.397 75.4191C52.6949 82.0542 50.5621 89.4493 50.1625 97.0369C49.7628 104.624 51.1069 112.203 54.0916 119.19C57.0763 126.177 61.6221 132.388 67.3803 137.345C73.1385 142.302 79.9559 145.874 87.3093 147.787C94.6627 149.7 102.357 149.902 109.8 148.379C117.244 146.856 124.24 143.647 130.251 139C136.262 134.352 141.128 128.389 144.476 121.569C147.824 114.748 149.565 107.251 149.565 99.6529H170.88Z" fill="#6F63BD"/>
<path d="M80.6067 93.4773V95.0984H75.4504V98.5945C75.6458 98.5164 75.8671 98.4513 76.1145 98.3992C76.3749 98.3471 76.7069 98.321 77.1106 98.321C77.8398 98.321 78.5038 98.4968 79.1028 98.8484C79.7148 99.2 80.203 99.6752 80.5676 100.274C80.9452 100.873 81.134 101.557 81.134 102.325C81.134 103.21 80.9257 103.998 80.509 104.688C80.0924 105.365 79.5194 105.899 78.7903 106.29C78.0611 106.667 77.2343 106.856 76.3098 106.856C75.8411 106.856 75.3788 106.785 74.9231 106.641C74.4674 106.511 74.0572 106.342 73.6926 106.134C73.328 105.925 73.0286 105.717 72.7942 105.509V103.575C73.0416 103.77 73.3411 104.005 73.6926 104.278C74.0442 104.538 74.4413 104.773 74.884 104.981C75.3267 105.177 75.802 105.274 76.3098 105.274C76.8958 105.274 77.4296 105.157 77.9114 104.923C78.3931 104.688 78.7708 104.363 79.0442 103.946C79.3306 103.529 79.4739 103.041 79.4739 102.481C79.4739 101.947 79.3241 101.492 79.0247 101.114C78.7252 100.723 78.328 100.424 77.8333 100.216C77.3385 99.9942 76.7981 99.8835 76.2122 99.8835C75.7174 99.8835 75.2616 99.9486 74.845 100.079C74.4413 100.196 74.0572 100.326 73.6926 100.469V93.4773H80.6067ZM87.677 93.1843C88.4062 93.1843 89.0637 93.3341 89.6497 93.6335C90.2486 93.92 90.7239 94.3236 91.0754 94.8445C91.427 95.3653 91.6028 95.9708 91.6028 96.6609C91.6028 97.4161 91.4205 98.0346 91.0559 98.5164C90.6913 98.9851 90.2421 99.3692 89.7083 99.6687C90.3202 99.9552 90.8541 100.385 91.3098 100.958C91.7655 101.518 91.9934 102.169 91.9934 102.911C91.9934 103.64 91.8111 104.304 91.4465 104.903C91.095 105.502 90.5937 105.977 89.9426 106.329C89.2916 106.68 88.5364 106.856 87.677 106.856C86.8176 106.856 86.0624 106.68 85.4114 106.329C84.7734 105.977 84.2721 105.502 83.9075 104.903C83.5429 104.304 83.3606 103.64 83.3606 102.911C83.3606 102.169 83.5885 101.518 84.0442 100.958C84.4999 100.385 85.0338 99.9552 85.6458 99.6687C85.1249 99.3692 84.6757 98.9851 84.2981 98.5164C83.9335 98.0346 83.7512 97.4161 83.7512 96.6609C83.7512 95.9708 83.927 95.3653 84.2786 94.8445C84.6301 94.3236 85.0989 93.92 85.6848 93.6335C86.2838 93.3341 86.9478 93.1843 87.677 93.1843ZM87.677 94.7664C87.3124 94.7664 86.9543 94.8575 86.6028 95.0398C86.2512 95.2221 85.9648 95.4695 85.7434 95.782C85.5221 96.0945 85.4114 96.4526 85.4114 96.8562C85.4114 97.2598 85.5221 97.6114 85.7434 97.9109C85.9648 98.1973 86.2512 98.4252 86.6028 98.5945C86.9543 98.7507 87.3124 98.8289 87.677 98.8289C88.0546 98.8289 88.4127 98.7507 88.7512 98.5945C89.1028 98.4252 89.3892 98.1973 89.6106 97.9109C89.8319 97.6114 89.9426 97.2598 89.9426 96.8562C89.9426 96.4526 89.8319 96.0945 89.6106 95.782C89.3892 95.4695 89.1028 95.2221 88.7512 95.0398C88.4127 94.8575 88.0546 94.7664 87.677 94.7664ZM87.677 100.469C87.2473 100.469 86.8241 100.574 86.4075 100.782C86.0038 100.99 85.6718 101.27 85.4114 101.622C85.151 101.973 85.0208 102.371 85.0208 102.813C85.0208 103.243 85.1379 103.647 85.3723 104.024C85.6067 104.402 85.9257 104.708 86.3293 104.942C86.733 105.163 87.1822 105.274 87.677 105.274C88.1848 105.274 88.634 105.163 89.0247 104.942C89.4283 104.708 89.7473 104.402 89.9817 104.024C90.2161 103.647 90.3333 103.243 90.3333 102.813C90.3333 102.371 90.203 101.973 89.9426 101.622C89.6822 101.27 89.3502 100.99 88.9465 100.782C88.5429 100.574 88.1197 100.469 87.677 100.469ZM95.9778 104.18C96.3554 104.18 96.6744 104.317 96.9348 104.591C97.2083 104.851 97.345 105.17 97.345 105.548C97.345 105.912 97.2083 106.231 96.9348 106.505C96.6744 106.778 96.3554 106.915 95.9778 106.915C95.6002 106.915 95.2747 106.778 95.0012 106.505C94.7408 106.231 94.6106 105.912 94.6106 105.548C94.6106 105.17 94.7408 104.851 95.0012 104.591C95.2747 104.317 95.6002 104.18 95.9778 104.18ZM108.107 105.001V106.563H101.017V105.001H103.615V96.4851C103.224 96.8236 102.82 97.058 102.404 97.1882C101.987 97.3184 101.57 97.4226 101.154 97.5007V95.821C101.909 95.6257 102.566 95.3067 103.126 94.864C103.686 94.4213 104.148 93.9591 104.513 93.4773H105.372V105.001H108.107ZM121.134 93.0867L122.228 93.614L114.2 106.954L113.165 106.427L121.134 93.0867ZM113.4 93.1843C113.986 93.1843 114.5 93.321 114.943 93.5945C115.398 93.8549 115.75 94.213 115.997 94.6687C116.245 95.1244 116.368 95.6257 116.368 96.1726C116.368 96.7195 116.245 97.2208 115.997 97.6765C115.75 98.1322 115.398 98.4968 114.943 98.7703C114.5 99.0307 113.986 99.1609 113.4 99.1609C112.814 99.1609 112.293 99.0307 111.837 98.7703C111.394 98.4968 111.049 98.1322 110.802 97.6765C110.555 97.2208 110.431 96.7195 110.431 96.1726C110.431 95.6257 110.555 95.1244 110.802 94.6687C111.049 94.213 111.394 93.8549 111.837 93.5945C112.293 93.321 112.814 93.1843 113.4 93.1843ZM113.419 94.5125C112.963 94.5125 112.579 94.6752 112.267 95.0007C111.954 95.3263 111.798 95.7169 111.798 96.1726C111.798 96.6283 111.954 97.0255 112.267 97.364C112.579 97.6895 112.963 97.8523 113.419 97.8523C113.875 97.8523 114.253 97.6895 114.552 97.364C114.865 97.0255 115.021 96.6283 115.021 96.1726C115.021 95.7169 114.865 95.3263 114.552 95.0007C114.253 94.6752 113.875 94.5125 113.419 94.5125ZM121.993 100.88C122.579 100.88 123.094 101.016 123.536 101.29C123.992 101.55 124.344 101.908 124.591 102.364C124.838 102.82 124.962 103.321 124.962 103.868C124.962 104.415 124.838 104.916 124.591 105.372C124.344 105.828 123.992 106.192 123.536 106.466C123.094 106.726 122.579 106.856 121.993 106.856C121.407 106.856 120.887 106.726 120.431 106.466C119.988 106.192 119.643 105.828 119.396 105.372C119.148 104.916 119.025 104.415 119.025 103.868C119.025 103.321 119.148 102.82 119.396 102.364C119.643 101.908 119.988 101.55 120.431 101.29C120.887 101.016 121.407 100.88 121.993 100.88ZM122.013 102.208C121.557 102.208 121.173 102.371 120.861 102.696C120.548 103.022 120.392 103.412 120.392 103.868C120.392 104.324 120.548 104.721 120.861 105.059C121.173 105.385 121.557 105.548 122.013 105.548C122.469 105.548 122.846 105.385 123.146 105.059C123.458 104.721 123.615 104.324 123.615 103.868C123.615 103.412 123.458 103.022 123.146 102.696C122.846 102.371 122.469 102.208 122.013 102.208Z" fill="black"/>
</svg>
