<svg width="121" height="121" viewBox="0 0 121 121" fill="none" xmlns="http://www.w3.org/2000/svg">
<path fill-rule="evenodd" clip-rule="evenodd" d="M96.3426 13.9188C77.0768 -1.18258 49.282 0.586793 30.7244 11.8708C-1.25879 31.3193 -5.4077 79.8682 17.4372 101.725C42.627 125.823 77.0084 120.015 94.142 104.598C116.349 84.6148 125.841 51.7135 106.726 27.2065" fill="white"/>
<path d="M96.3426 13.9188C77.0767 -1.18258 49.282 0.586793 30.7244 11.8708C-1.25879 31.3193 -5.4077 79.8682 17.4372 101.725C42.627 125.823 77.0084 120.015 94.142 104.598C116.349 84.6148 125.841 51.7135 106.726 27.2065" stroke="black" stroke-width="6" stroke-miterlimit="1.5" stroke-linecap="round" stroke-linejoin="round"/>
<path d="M45.3231 45.4325C44.8236 48.498 44.6171 51.6546 44.5377 54.7604" stroke="black" stroke-width="6" stroke-miterlimit="1.5" stroke-linecap="round" stroke-linejoin="round"/>
<path d="M72.8811 44.5706C72.9027 48.2731 73.1337 52.138 72.7627 55.8362" stroke="black" stroke-width="6" stroke-miterlimit="1.5" stroke-linecap="round" stroke-linejoin="round"/>
<path d="M30.6918 71.4205C31.6143 74.867 33.675 77.8832 36.1963 80.364C48.561 92.532 71.6506 88.7301 80.4636 74.0435" stroke="black" stroke-width="6" stroke-miterlimit="1.5" stroke-linecap="round" stroke-linejoin="round"/>
</svg>
