<svg width="120" height="110" viewBox="0 0 120 110" fill="none" xmlns="http://www.w3.org/2000/svg">
<path fill-rule="evenodd" clip-rule="evenodd" d="M108.6 6.86211C107.219 5.71084 105.657 4.87848 103.974 4.28824C97.1734 1.90271 88.409 3.47297 81.7238 3.9364C71.5323 4.64352 61.305 4.48285 51.117 4.9942C44.9998 5.30159 38.5961 5.05282 32.5425 5.92416C25.597 6.92349 18.3694 4.55141 11.9792 7.76212C2.67327 12.4385 3.04918 19.7375 3.00407 29.5128C2.94334 42.5602 3.58248 55.59 3.59405 68.6403C3.59926 74.8098 3.77798 83.5179 4.67856 89.6482C5.92791 98.1484 13.48 107.225 23.5205 106.939C42.1393 107.255 62.4241 106.276 80.4518 105.576C88.2666 105.274 97.9965 105.164 105.614 102.866C118.375 99.0181 117.192 78.8715 116.763 68.4791C116.655 65.8475 115.212 27.8486 113.48 17.4778C113.12 15.3243 112.93 12.726 111.832 10.7811" fill="white"/>
<path d="M108.6 6.86211C107.219 5.71084 105.657 4.87848 103.974 4.28824C97.1734 1.90271 88.409 3.47297 81.7238 3.9364C71.5323 4.64352 61.305 4.48285 51.117 4.9942C44.9998 5.30159 38.5961 5.05282 32.5425 5.92416C25.597 6.92349 18.3694 4.55141 11.9792 7.76212C2.67327 12.4385 3.04918 19.7375 3.00407 29.5128C2.94334 42.5602 3.58248 55.59 3.59405 68.6403C3.59926 74.8098 3.77798 83.5179 4.67856 89.6482C5.92791 98.1484 13.48 107.225 23.5205 106.939C42.1393 107.255 62.4241 106.276 80.4518 105.576C88.2666 105.274 97.9965 105.164 105.614 102.866C118.375 99.0181 117.192 78.8715 116.763 68.4791C116.655 65.8475 115.212 27.8486 113.48 17.4778C113.12 15.3243 112.93 12.726 111.832 10.7811" stroke="black" stroke-width="6" stroke-miterlimit="1.5" stroke-linecap="round" stroke-linejoin="round"/>
<path d="M97.131 14.5545C92.565 13.762 86.6901 14.5807 83.4574 14.4826C74.2064 14.202 64.8977 14.997 55.6525 15.2285C47.597 15.4301 38.9459 15.0053 30.9842 16.018C24.2891 16.8701 14.3423 15.2867 14.3434 23.7091C14.3452 34.0501 14.6539 44.3837 14.5909 54.7241C14.5504 61.3173 13.2255 68.3766 14.2186 74.9073C14.7473 78.381 16.3452 81.4558 19.9753 82.2143C23.4416 82.9384 27.4045 82.7607 30.8483 82.462C35.1175 82.0921 39.4756 82.019 43.7506 81.8542C54.5609 81.437 93.9244 79.9462 99.5962 78.9205C105.143 77.5343 106.107 68.8643 105.9 64.6578C105.255 51.5771 105.056 37.1627 103.522 20.066" stroke="black" stroke-width="6" stroke-miterlimit="1.5" stroke-linecap="round" stroke-linejoin="round"/>
<path d="M35.8309 25.9137C31.295 24.3025 27.9893 29.1532 27.4364 33.1294C26.9228 36.8211 29.8137 40.5173 33.2182 41.6201C34.9268 42.1735 37.3954 42.5757 39.1358 41.9551C46.7204 39.2499 46.3961 28.6287 38.9411 26.4313" stroke="black" stroke-width="6" stroke-miterlimit="1.5" stroke-linecap="round" stroke-linejoin="round"/>
<path d="M19.9376 80.6435C20.9799 77.0856 23.1958 73.4606 25.4446 70.5491C28.0625 67.1608 30.7648 63.7216 34.6372 61.734C49.5629 54.0737 64.318 66.4989 70.8615 79.423" stroke="black" stroke-width="6" stroke-miterlimit="1.5" stroke-linecap="round" stroke-linejoin="round"/>
<path d="M53.8491 61.3753C53.4697 56.935 57.1438 52.3049 59.3643 48.7716C62.4287 43.8948 66.8852 38.5667 72.3476 36.2706C84.357 31.222 98.4628 37.878 104.677 48.6958" stroke="black" stroke-width="6" stroke-miterlimit="1.5" stroke-linecap="round" stroke-linejoin="round"/>
</svg>
