<svg width="175" height="120" viewBox="0 0 175 120" fill="none" xmlns="http://www.w3.org/2000/svg">
<path d="M134.102 59.3436C106.817 45.6693 54.3498 47.9827 27.4182 59.9484C15.1529 65.398 -7.46392 81.1883 6.29855 96.0964C8.72589 98.7259 11.6764 100.862 14.7291 102.711C48.3255 123.053 95.1836 120.981 131.24 108.809C136.617 106.994 141.909 104.839 146.777 101.91C150.418 99.7195 153.938 97.0043 156.774 93.8357C165.074 84.5597 162.906 75.2246 153.976 67.3605C143.622 58.2427 129.463 55.4171 116.103 53.8697C104.421 52.5166 92.7529 52.2568 81.0154 52.809C59.0025 53.8446 33.6341 55.4923 15.1718 67.958C7.10791 73.4028 -1.55566 85.0375 5.35652 94.4541C12.8468 104.658 30.5079 107.962 42.3869 110.115C74.4328 115.924 125.138 113.044 154.328 97.8004C157.476 96.1565 160.665 94.6246 163.48 92.4629C165.705 90.7549 167.836 88.8073 169.684 86.6995C182.78 71.7622 153.556 62.3702 143.25 60.7573C110.827 55.6834 62.8397 48.3613 32.98 61.8588" stroke="black" stroke-width="3" stroke-miterlimit="1.5" stroke-linecap="round" stroke-linejoin="round"/>
<path fill-rule="evenodd" clip-rule="evenodd" d="M76.673 97C83.2471 89.3498 79.9786 77.0379 72.3847 73.2508C57.8519 66.0025 40.3314 65.3757 25.9682 57.8354C23.0761 56.3172 19.6259 53.8312 18.4552 50.6611C16.9801 46.6678 19.164 38.889 23.9331 38.4923C23.9331 38.4733 22.7976 37.011 22.5583 35.5159C22.2644 33.3875 22.4361 31.116 23.3073 29.1418C25.0793 25.124 33.6597 20.5326 37.5849 24.4477C37.5958 24.4587 37.6746 23.004 37.6835 22.9139C37.79 21.855 38.1533 20.7955 38.5661 19.8203C39.8136 16.8725 41.761 14.1293 44.2878 12.1395C49.5074 8.02958 61.0749 6.42395 64.7156 13.6863C64.7156 13.6863 66.0449 10.4064 67.223 9.20725C69.5457 6.84306 72.6399 4.99117 75.7789 3.92647C84.3134 1.03228 94.1799 5.01147 95.3773 14.5677C95.3773 14.5677 96.7386 13.807 96.8597 13.7409C97.8258 13.213 98.8154 12.7064 99.8275 12.2738C102.716 11.0388 106.281 10.1262 109.373 11.1003C117.61 13.6951 122.164 22.7583 117.902 30.4095C117.902 30.4095 120.071 30.7536 121.119 31.0691C123.181 31.6903 124.887 32.8461 126.333 34.4298C130.076 38.5277 130.857 45.2762 126.119 48.9112C126.119 48.9112 127.036 49.2545 128.135 50.2409C129.499 51.466 130.643 53.0065 131.307 54.7236C133.316 59.9174 130.632 62.6861 127.417 65.8932C127.343 65.8557 127.983 66.3852 128.098 66.4867C128.643 66.9673 129.149 67.553 129.514 68.1819C130.547 69.9646 130.333 72.3173 129.797 74.228C128.293 79.5859 123.027 83.5604 117.448 81.7054C117.199 82.6376 115.909 84.6532 114.352 85.6585C110.654 88.0451 104.621 88.0305 101.134 85.3758C99.2815 83.9659 98.258 81.8553 96.4885 80.3845C97.058 80.9016 96.7845 84.3168 96.6952 84.8614C96.0778 88.6261 93.3109 94.174 90.1238 96.558L76.673 97Z" fill="white" stroke="black" stroke-width="6" stroke-miterlimit="1.5" stroke-linecap="round" stroke-linejoin="round"/>
<path d="M39.3058 42.2475C39.3168 42.2584 39.3418 42.2641 39.3538 42.2683C39.2802 43.1336 39.4849 38.991 39.5842 38.4446C40.1195 35.5122 41.329 33.2456 44.1634 31.8494C50.2812 28.8353 57.8384 30.8039 58.4499 38.1482C58.4551 38.206 58.335 36.6004 58.3554 36.3618C58.4431 35.3496 58.5847 34.3369 58.909 33.368C60.0569 29.9391 62.462 27.4579 65.7773 25.8659C73.418 22.1974 81.5121 25.6393 81.4875 34.1937" stroke="black" stroke-width="6" stroke-miterlimit="1.5" stroke-linecap="round" stroke-linejoin="round"/>
<path d="M92.5221 38.7102C91.918 38.7024 93.4099 37.8761 93.954 37.6179C94.9788 37.1313 96.0619 36.7989 97.1892 36.6363C100.549 36.1522 103.926 37.018 106.614 39.0494C112.548 43.5329 110.626 50.1687 104.415 53.0254C104.284 53.0856 105.449 52.6187 105.579 52.6021C106.605 52.4727 107.711 52.5538 108.715 52.787C111.642 53.4669 114.307 55.5855 115.922 58.0438C119.785 63.9271 115.218 69.6493 108.922 70.3484" stroke="black" stroke-width="6" stroke-miterlimit="1.5" stroke-linecap="round" stroke-linejoin="round"/>
</svg>
